# xmcd
#
# Track frame offsets: 
#        150
#        25087
#        49837
#        65370
#        88425
#        110527
#        129930
#        159495
#        177022
#        189187
#        207390
#        234510
#        252390
#        272909
#
# Disc length: 4150 seconds
#
# Revision: 0
# Processed by: cddbd v1.5.2PL0 Copyright (c) Steve Scherf et al.
# Submitted via: ExactAudioCopy v0.99pb5
#
DISCID=c010340e
DTITLE=Eddie Martin - Blues Took Me By The Hands [CD 2)
DYEAR=2014
DGENRE=Blues
TTITLE0=Play The Blues With Feeling
TTITLE1=Ice Cream
TTITLE2=Sorry For The Rain
TTITLE3=Keep It Natural
TTITLE4=Let's Move It On
TTITLE5=You Thrill Me
TTITLE6=Blue To The Bone
TTITLE7=Someone's Making Money
TTITLE8=The Birds 'n' The Bees
TTITLE9=I Wanna Groove With You
TTITLE10=Second Chance Romance
TTITLE11=Funky Guitar Man
TTITLE12=Someone's Making Money
TTITLE13=Autumn Blues
EXTD=
EXTT0=
EXTT1=
EXTT2=
EXTT3=
EXTT4=
EXTT5=
EXTT6=
EXTT7=
EXTT8=
EXTT9=
EXTT10=
EXTT11=
EXTT12=
EXTT13=
PLAYORDER=
